# Blender v3.1.2 OBJ File: 'ladder.blend'
# www.blender.org
mtllib ladder.mtl
o ladder
v -1.000000 -0.000000 0.019363
v 1.000000 -0.000000 0.019363
v -1.000000 0.102822 0.019363
v 1.000000 0.102822 0.019363
v -1.000000 0.051411 -0.069684
v 1.000000 0.051411 -0.069684
v -1.000000 -0.051412 -0.069684
v 1.000000 -0.051412 -0.069684
v -1.000000 -0.102823 0.019363
v 1.000000 -0.102823 0.019363
v -1.000000 -0.051412 0.108410
v 1.000000 -0.051412 0.108410
v -1.000000 0.051411 0.108410
v 1.000000 0.051411 0.108410
v -1.000000 0.215191 -0.754966
v -1.000000 0.215193 0.732375
v -0.813638 0.107595 -0.754966
v -0.813638 0.107597 0.732375
v -0.813638 -0.107597 -0.754966
v -0.813638 -0.107595 0.732375
v -1.000000 -0.215193 -0.754966
v -1.000000 -0.215191 0.732375
v -1.186362 -0.107597 -0.754966
v -1.186362 -0.107595 0.732375
v -1.186362 0.107595 -0.754966
v -1.186362 0.107597 0.732375
v 1.000000 0.215191 -0.754966
v 1.000000 0.215193 0.732375
v 0.813638 0.107595 -0.754966
v 0.813638 0.107597 0.732375
v 0.813638 -0.107597 -0.754966
v 0.813638 -0.107595 0.732375
v 1.000000 -0.215193 -0.754966
v 1.000000 -0.215191 0.732375
v 1.186362 -0.107597 -0.754966
v 1.186362 -0.107595 0.732375
v 1.186362 0.107595 -0.754966
v 1.186362 0.107597 0.732375
vt 0.581480 0.374824
vt 0.581480 0.364019
vt 0.633743 0.369421
vt 0.476956 0.010805
vt 0.424694 0.005402
vt 0.476956 0.000000
vt 0.581480 0.000000
vt 0.633743 0.005402
vt 0.633743 0.380226
vt 0.424694 0.016207
vt 0.633743 1.000000
vt 0.633743 0.000000
vt 0.659108 0.000000
vt 0.659108 1.000000
vt 0.581481 0.385629
vt 0.476956 0.021610
vt 0.424694 0.380226
vt 0.476956 0.385629
vt 0.529218 0.380226
vt 0.529218 0.016208
vt 0.529218 0.369422
vt 0.529218 0.005403
vt 0.684474 0.000000
vt 0.684474 1.000000
vt 0.659108 1.000000
vt 0.659108 0.000000
vt 0.079630 0.743671
vt 0.079630 0.000000
vt 0.106173 0.000000
vt 0.106173 0.743671
vt 0.424694 0.000000
vt 0.424694 0.743671
vt 0.398151 0.743671
vt 0.398151 0.000000
vt 0.345064 0.743671
vt 0.345064 0.000000
vt 0.318521 0.743671
vt 0.318521 0.000000
vt 0.814196 0.186362
vt 0.787653 0.093181
vt 0.814196 0.000000
vt 0.867283 0.000000
vt 0.893826 0.093181
vt 0.867283 0.186362
vt 0.000000 0.743671
vt 0.000000 0.000000
vt 0.026543 0.000000
vt 0.026543 0.743671
vt 0.787653 0.085220
vt 0.787653 0.181105
vt 0.736064 0.191771
vt 0.684474 0.106551
vt 0.684474 0.010666
vt 0.736064 0.000000
vt 0.291977 0.743671
vt 0.238890 0.743671
vt 0.238890 0.000000
vt 0.291977 0.000000
vt 0.212347 0.743671
vt 0.212347 0.000000
vt 0.106173 0.000000
vt 0.132717 0.000000
vt 0.132717 0.743671
vt 0.106173 0.743671
vt 0.185804 0.000000
vt 0.185804 0.743671
vt 0.973457 0.186362
vt 0.920370 0.186362
vt 0.893826 0.093181
vt 0.920370 0.000000
vt 0.973457 0.000000
vt 1.000000 0.093181
vt 0.212347 0.000000
vt 0.212347 0.743671
vt 0.318521 0.743671
vt 0.318521 0.000000
vt 0.890832 0.271581
vt 0.873844 0.387674
vt 0.839242 0.378133
vt 0.787653 0.292913
vt 0.787653 0.197028
vt 0.839242 0.186362
vn -1.0000 -0.0000 0.0000
vn 1.0000 0.0000 0.0000
vn 0.0000 0.8660 -0.5000
vn 0.0000 -0.0000 -1.0000
vn 0.0000 -0.8660 -0.5000
vn 0.0000 -0.8660 0.5000
vn 0.0000 0.0000 1.0000
vn 0.0000 0.8660 0.5000
vn 0.5000 0.8660 -0.0000
vn 0.5000 -0.8660 0.0000
vn -0.5000 -0.8660 0.0000
vn -0.5000 0.8660 -0.0000
usemtl LadderMat1
s 1
f 1/1/1 3/2/1 5/3/1
f 2/4/2 6/5/2 4/6/2
f 3/2/3 4/7/3 6/8/3 5/3/3
f 1/1/1 5/3/1 7/9/1
f 2/4/2 8/10/2 6/5/2
f 5/11/4 6/12/4 8/13/4 7/14/4
f 1/1/1 7/9/1 9/15/1
f 2/4/2 10/16/2 8/10/2
f 7/17/5 8/10/5 10/16/5 9/18/5
f 1/1/1 9/15/1 11/19/1
f 2/4/2 12/20/2 10/16/2
f 9/18/6 10/16/6 12/20/6 11/19/6
f 1/1/1 11/19/1 13/21/1
f 2/4/2 14/22/2 12/20/2
f 11/23/7 12/24/7 14/25/7 13/26/7
f 1/1/1 13/21/1 3/2/1
f 2/4/2 4/6/2 14/22/2
f 13/21/8 14/22/8 4/7/8 3/2/8
f 15/27/9 16/28/9 18/29/9 17/30/9
f 17/31/2 18/32/2 20/33/2 19/34/2
f 19/34/10 20/33/10 22/35/10 21/36/10
f 21/36/11 22/35/11 24/37/11 23/38/11
f 18/39/7 16/40/7 26/41/7 24/42/7 22/43/7 20/44/7
f 23/45/1 24/46/1 26/47/1 25/48/1
f 25/48/12 26/47/12 16/28/12 15/27/12
f 15/49/4 17/50/4 19/51/4 21/52/4 23/53/4 25/54/4
f 27/55/12 29/56/12 30/57/12 28/58/12
f 29/56/1 31/59/1 32/60/1 30/57/1
f 31/61/11 33/62/11 34/63/11 32/64/11
f 33/62/10 35/65/10 36/66/10 34/63/10
f 30/67/7 32/68/7 34/69/7 36/70/7 38/71/7 28/72/7
f 35/65/2 37/73/2 38/74/2 36/66/2
f 37/75/9 27/55/9 28/58/9 38/76/9
f 27/77/4 37/78/4 35/79/4 33/80/4 31/81/4 29/82/4
